<svg xmlns="http://www.w3.org/2000/svg" xmlns:xlink="http://www.w3.org/1999/xlink" width="500" zoomAndPan="magnify" viewBox="0 0 375 374.999991" height="500" preserveAspectRatio="xMidYMid meet" version="1.0"><defs><clipPath id="c3ff8ce9fb"><path d="M 0 117 L 187 117 L 187 321.421875 L 0 321.421875 Z M 0 117 " clip-rule="nonzero"/></clipPath><clipPath id="d527aa5988"><path d="M 122.929688 53.671875 L 374.730469 53.671875 L 374.730469 321.328125 L 122.929688 321.328125 Z M 122.929688 53.671875 " clip-rule="nonzero"/></clipPath></defs><g clip-path="url(#c3ff8ce9fb)"><path fill="#38b6ff" d="M 83.6875 267.796875 L 108.230469 214.265625 L 137.640625 214.265625 L 93.492188 117.96875 L 0.253906 321.328125 L 186.726562 321.328125 L 162.1875 267.796875 L 83.6875 267.796875 " fill-opacity="1" fill-rule="nonzero"/></g><g clip-path="url(#d527aa5988)"><path fill="#38b6ff" d="M 321.199219 241.03125 C 321.199219 255.8125 309.21875 267.796875 294.433594 267.796875 L 279.964844 267.796875 L 255.421875 214.265625 C 271.273438 214.265625 294.433594 214.265625 294.433594 214.265625 C 309.21875 214.265625 321.199219 226.25 321.199219 241.03125 Z M 206.335938 107.203125 L 240.902344 107.203125 C 255.6875 107.203125 267.667969 119.1875 267.667969 133.96875 C 267.667969 148.746094 255.695312 160.726562 240.917969 160.734375 L 230.878906 160.734375 Z M 315.574219 163.550781 C 319.203125 154.398438 321.199219 144.417969 321.199219 133.96875 C 321.199219 89.621094 285.25 53.671875 240.902344 53.671875 L 122.96875 53.671875 L 122.933594 53.746094 L 147.445312 107.203125 L 196.53125 214.265625 L 217.433594 259.859375 L 217.84375 260.75 L 221.074219 267.796875 L 245.617188 321.328125 L 294.433594 321.328125 C 338.78125 321.328125 374.730469 285.378906 374.730469 241.03125 C 374.730469 204 349.664062 172.832031 315.574219 163.550781 " fill-opacity="1" fill-rule="nonzero"/></g></svg>